<?xml version="1.0" standalone="no"?><!DOCTYPE svg PUBLIC "-//W3C//DTD SVG 1.1//EN" "http://www.w3.org/Graphics/SVG/1.1/DTD/svg11.dtd"><svg t="1673321314808" class="icon" viewBox="0 0 1024 1024" version="1.1" xmlns="http://www.w3.org/2000/svg" p-id="1337" xmlns:xlink="http://www.w3.org/1999/xlink" width="60" height="60"><path d="M754.83125001 465.09716797c-3.02519531 87.75263671-17.63261719 154.55742188-43.87500002 200.46972656-26.21601563 45.88330078-67.06669922 80.41992188-122.55205077 103.63710938l66.57099609 105.90820312c91.79560547-41.37275391 158.86230469-102.38642578 201.22470703-183.06914062 32.29541017-60.51972656 48.41455078-158.36660156 48.41455079-293.51689454V148.88779297H612.61191406v316.209375h142.21933595z m-469.01953126 0c-3.02607422 87.75263671-17.63349609 154.55742188-43.87675781 200.46972656-26.21513673 45.88330078-67.06582031 80.41992188-122.55029297 103.63710938l66.57099609 105.90820312c91.79472656-41.37275391 158.86054687-102.38730469 201.22382813-183.06914062 32.29541017-60.51972656 48.41542969-158.36660156 48.41542968-293.51689454V148.88779297H143.59150391v316.209375h142.21933593z" p-id="1338"></path></svg>