<?xml version="1.0" standalone="no"?><!DOCTYPE svg PUBLIC "-//W3C//DTD SVG 1.1//EN" "http://www.w3.org/Graphics/SVG/1.1/DTD/svg11.dtd"><svg t="1673227634428" class="icon" viewBox="0 0 1024 1024" version="1.1" xmlns="http://www.w3.org/2000/svg" p-id="1348" xmlns:xlink="http://www.w3.org/1999/xlink" width="60" height="60"><path d="M876.08888889 642.38023111l-145.63555556-145.63555556-145.63555555 145.63555556-291.81724445-291.81724444L147.91111111 495.65240889V147.72906667h728.17777778z m0 233.52661334H147.91111111V598.65315555l145.08942222-145.08942222L584.81777778 745.38097778l145.63555555-145.63555556 145.63555556 145.63555556z m0-800.99555556H75.09333333v873.81333333h873.81333334v-873.81333333z" p-id="1349"></path><path d="M694.04444445 293.40103111c-20.06129778 0-36.40888889 16.34759111-36.4088889 36.40888889s16.34759111 36.40888889 36.4088889 36.40888889 36.40888889-16.384 36.40888888-36.40888889-16.34759111-36.40888889-36.40888888-36.40888889m0 145.63555556c-60.22030222 0-109.22666667-49.00636445-109.22666667-109.22666667s49.00636445-109.22666667 109.22666667-109.22666667 109.22666667 49.00636445 109.22666666 109.22666667-49.00636445 109.22666667-109.22666666 109.22666667" p-id="1350"></path></svg>